<?xml version="1.0" encoding="UTF-8" standalone="no"?>
<svg width="950" height="500" xmlns="http://www.w3.org/2000/svg">
  <!-- Entidades -->
  <rect x="60" y="60" width="140" height="40" fill="#e3e3e3" stroke="#333"/>
  <text x="130" y="85" font-size="16" text-anchor="middle">CUSTOMERS</text>

  <rect x="260" y="60" width="140" height="40" fill="#e3e3e3" stroke="#333"/>
  <text x="330" y="85" font-size="16" text-anchor="middle">ORDERS</text>

  <rect x="460" y="60" width="160" height="40" fill="#e3e3e3" stroke="#333"/>
  <text x="540" y="85" font-size="16" text-anchor="middle">ORDER_ITEMS</text>

  <rect x="700" y="60" width="140" height="40" fill="#e3e3e3" stroke="#333"/>
  <text x="770" y="85" font-size="16" text-anchor="middle">PRODUCTS</text>

  <rect x="700" y="160" width="140" height="40" fill="#e3e3e3" stroke="#333"/>
  <text x="770" y="185" font-size="16" text-anchor="middle">SELLERS</text>

  <rect x="260" y="160" width="140" height="40" fill="#e3e3e3" stroke="#333"/>
  <text x="330" y="185" font-size="16" text-anchor="middle">REVIEWS</text>

  <rect x="60" y="300" width="160" height="40" fill="#e3e3e3" stroke="#333"/>
  <text x="140" y="325" font-size="16" text-anchor="middle">GEOLOCATIONS</text>

  <!-- Relacionamentos -->
  <line x1="200" y1="80" x2="260" y2="80" stroke="#333" stroke-width="2"/>
  <text x="230" y="75" font-size="12" text-anchor="middle">1:N</text>

  <line x1="400" y1="80" x2="460" y2="80" stroke="#333" stroke-width="2"/>
  <text x="430" y="75" font-size="12" text-anchor="middle">1:N</text>

  <line x1="620" y1="80" x2="700" y2="80" stroke="#333" stroke-width="2"/>
  <text x="660" y="75" font-size="12" text-anchor="middle">N:1</text>

  <line x1="620" y1="80" x2="700" y2="180" stroke="#333" stroke-width="2"/>
  <text x="660" y="170" font-size="12" text-anchor="middle">N:1</text>

  <line x1="330" y1="100" x2="330" y2="160" stroke="#333" stroke-width="2"/>
  <text x="340" y="145" font-size="12" text-anchor="start">1:1</text>

  <line x1="140" y1="100" x2="140" y2="300" stroke="#333" stroke-width="2"/>
  <text x="150" y="280" font-size="12" text-anchor="start">N:1</text>

  <line x1="770" y1="200" x2="140" y2="300" stroke="#333" stroke-width="2"/>
  <text x="450" y="290" font-size="12" text-anchor="middle">N:1</text>
</svg>
