<?xml version="1.0" encoding="UTF-8" standalone="no"?>
<svg width="1100" height="600" xmlns="http://www.w3.org/2000/svg">
  <!-- Entidades -->
  <rect x="60" y="60" width="180" height="60" fill="#e3e3e3" stroke="#333"/>
  <text x="150" y="90" font-size="16" text-anchor="middle">CUSTOMERS</text>
  <text x="70" y="110" font-size="12">customer_id (PK)</text>
  <text x="70" y="125" font-size="12">customer_unique_id</text>
  <text x="70" y="140" font-size="12">customer_zip_code_prefix (FK)</text>
  <text x="70" y="155" font-size="12">customer_city</text>
  <text x="70" y="170" font-size="12">customer_state</text>

  <rect x="300" y="60" width="180" height="60" fill="#e3e3e3" stroke="#333"/>
  <text x="390" y="90" font-size="16" text-anchor="middle">ORDERS</text>
  <text x="310" y="110" font-size="12">order_id (PK)</text>
  <text x="310" y="125" font-size="12">customer_id (FK)</text>
  <text x="310" y="140" font-size="12">order_status</text>
  <text x="310" y="155" font-size="12">order_purchase_timestamp</text>
  <text x="310" y="170" font-size="12">order_approved_at</text>
  <text x="310" y="185" font-size="12">order_delivered_carrier_date</text>
  <text x="310" y="200" font-size="12">order_delivered_customer_date</text>
  <text x="310" y="215" font-size="12">order_estimated_delivery_date</text>

  <rect x="540" y="60" width="200" height="60" fill="#e3e3e3" stroke="#333"/>
  <text x="640" y="90" font-size="16" text-anchor="middle">ORDER_ITEMS</text>
  <text x="550" y="110" font-size="12">order_id (PK, FK)</text>
  <text x="550" y="125" font-size="12">order_item_id (PK)</text>
  <text x="550" y="140" font-size="12">product_id (FK)</text>
  <text x="550" y="155" font-size="12">seller_id (FK)</text>
  <text x="550" y="170" font-size="12">shipping_limit_date</text>
  <text x="550" y="185" font-size="12">price</text>
  <text x="550" y="200" font-size="12">freight_value</text>

  <rect x="800" y="60" width="180" height="60" fill="#e3e3e3" stroke="#333"/>
  <text x="890" y="90" font-size="16" text-anchor="middle">PRODUCTS</text>
  <text x="810" y="110" font-size="12">product_id (PK)</text>
  <text x="810" y="125" font-size="12">product_category_name</text>
  <text x="810" y="140" font-size="12">product_name_lenght</text>
  <text x="810" y="155" font-size="12">product_description_lenght</text>
  <text x="810" y="170" font-size="12">product_photos_qty</text>
  <text x="810" y="185" font-size="12">product_weight_g</text>
  <text x="810" y="200" font-size="12">product_length_cm</text>
  <text x="810" y="215" font-size="12">product_height_cm</text>
  <text x="810" y="230" font-size="12">product_width_cm</text>

  <rect x="800" y="200" width="180" height="60" fill="#e3e3e3" stroke="#333"/>
  <text x="890" y="230" font-size="16" text-anchor="middle">SELLERS</text>
  <text x="810" y="250" font-size="12">seller_id (PK)</text>
  <text x="810" y="265" font-size="12">seller_zip_code_prefix (FK)</text>
  <text x="810" y="280" font-size="12">seller_city</text>
  <text x="810" y="295" font-size="12">seller_state</text>

  <rect x="300" y="200" width="180" height="60" fill="#e3e3e3" stroke="#333"/>
  <text x="390" y="230" font-size="16" text-anchor="middle">REVIEWS</text>
  <text x="310" y="250" font-size="12">review_id (PK)</text>
  <text x="310" y="265" font-size="12">order_id (FK)</text>
  <text x="310" y="280" font-size="12">review_score</text>
  <text x="310" y="295" font-size="12">review_comment_title</text>
  <text x="310" y="310" font-size="12">review_comment_message</text>
  <text x="310" y="325" font-size="12">review_creation_date</text>
  <text x="310" y="340" font-size="12">review_answer_timestamp</text>

  <rect x="60" y="400" width="200" height="60" fill="#e3e3e3" stroke="#333"/>
  <text x="160" y="430" font-size="16" text-anchor="middle">GEOLOCATIONS</text>
  <text x="70" y="450" font-size="12">zip_code_prefix (PK)</text>
  <text x="70" y="465" font-size="12">latitude</text>
  <text x="70" y="480" font-size="12">longitude</text>
  <text x="70" y="495" font-size="12">city</text>
  <text x="70" y="510" font-size="12">state</text>

  <!-- Relacionamentos -->
  <line x1="240" y1="90" x2="300" y2="90" stroke="#333" stroke-width="2"/>
  <text x="270" y="85" font-size="12" text-anchor="middle">1:N</text>

  <line x1="480" y1="90" x2="540" y2="90" stroke="#333" stroke-width="2"/>
  <text x="510" y="85" font-size="12" text-anchor="middle">1:N</text>

  <line x1="740" y1="90" x2="800" y2="90" stroke="#333" stroke-width="2"/>
  <text x="770" y="85" font-size="12" text-anchor="middle">N:1</text>

  <line x1="740" y1="90" x2="800" y2="230" stroke="#333" stroke-width="2"/>
  <text x="770" y="220" font-size="12" text-anchor="middle">N:1</text>

  <line x1="390" y1="120" x2="390" y2="200" stroke="#333" stroke-width="2"/>
  <text x="400" y="180" font-size="12" text-anchor="start">1:1</text>

  <line x1="150" y1="120" x2="150" y2="400" stroke="#333" stroke-width="2"/>
  <text x="160" y="380" font-size="12" text-anchor="start">N:1</text>

  <line x1="890" y1="260" x2="160" y2="400" stroke="#333" stroke-width="2"/>
  <text x="520" y="390" font-size="12" text-anchor="middle">N:1</text>
</svg>
