<?xml version="1.0" encoding="UTF-8" standalone="no"?>
<svg width="900" height="400" xmlns="http://www.w3.org/2000/svg">
  <rect x="40" y="40" width="120" height="40" fill="#e3e3e3" stroke="#333"/>
  <text x="100" y="65" font-size="16" text-anchor="middle">CUSTOMERS</text>

  <rect x="220" y="40" width="120" height="40" fill="#e3e3e3" stroke="#333"/>
  <text x="280" y="65" font-size="16" text-anchor="middle">ORDERS</text>

  <rect x="400" y="40" width="140" height="40" fill="#e3e3e3" stroke="#333"/>
  <text x="470" y="65" font-size="16" text-anchor="middle">ORDER_ITEMS</text>

  <rect x="600" y="40" width="120" height="40" fill="#e3e3e3" stroke="#333"/>
  <text x="660" y="65" font-size="16" text-anchor="middle">PRODUCTS</text>

  <rect x="600" y="120" width="120" height="40" fill="#e3e3e3" stroke="#333"/>
  <text x="660" y="145" font-size="16" text-anchor="middle">SELLERS</text>

  <rect x="220" y="120" width="120" height="40" fill="#e3e3e3" stroke="#333"/>
  <text x="280" y="145" font-size="16" text-anchor="middle">REVIEWS</text>

  <rect x="40" y="200" width="140" height="40" fill="#e3e3e3" stroke="#333"/>
  <text x="110" y="225" font-size="16" text-anchor="middle">GEOLOCATIONS</text>

  <!-- Relacionamentos -->
  <line x1="160" y1="60" x2="220" y2="60" stroke="#333" stroke-width="2"/>
  <text x="190" y="55" font-size="12" text-anchor="middle">1:N</text>

  <line x1="340" y1="60" x2="400" y2="60" stroke="#333" stroke-width="2"/>
  <text x="370" y="55" font-size="12" text-anchor="middle">1:N</text>

  <line x1="540" y1="60" x2="600" y2="60" stroke="#333" stroke-width="2"/>
  <text x="570" y="55" font-size="12" text-anchor="middle">N:1</text>

  <line x1="540" y1="60" x2="600" y2="140" stroke="#333" stroke-width="2"/>
  <text x="570" y="120" font-size="12" text-anchor="middle">N:1</text>

  <line x1="280" y1="80" x2="280" y2="120" stroke="#333" stroke-width="2"/>
  <text x="290" y="105" font-size="12" text-anchor="start">1:1</text>

  <line x1="110" y1="80" x2="110" y2="200" stroke="#333" stroke-width="2"/>
  <text x="120" y="180" font-size="12" text-anchor="start">N:1</text>

  <line x1="660" y1="160" x2="110" y2="200" stroke="#333" stroke-width="2"/>
  <text x="380" y="190" font-size="12" text-anchor="middle">N:1</text>
</svg>
